<svg width="40" height="40" viewBox="0 0 40 40" fill="none" xmlns="http://www.w3.org/2000/svg">
<g filter="url(#filter0_d_255_60)">
<path d="M26.9 29L21.425 23.525L23.525 21.425L29 26.9L26.9 29ZM13.1 29L11 26.9L17.9 20L16.2 18.3L15.5 19L14.225 17.725V19.775L13.525 20.475L10.5 17.45L11.2 16.75H13.25L12 15.5L15.55 11.95C15.8833 11.6167 16.2417 11.375 16.625 11.225C17.0083 11.075 17.4 11 17.8 11C18.2 11 18.5917 11.075 18.975 11.225C19.3583 11.375 19.7167 11.6167 20.05 11.95L17.75 14.25L19 15.5L18.3 16.2L20 17.9L22.25 15.65C22.1833 15.4667 22.1292 15.275 22.0875 15.075C22.0458 14.875 22.025 14.675 22.025 14.475C22.025 13.4917 22.3625 12.6625 23.0375 11.9875C23.7125 11.3125 24.5417 10.975 25.525 10.975C25.775 10.975 26.0125 11 26.2375 11.05C26.4625 11.1 26.6917 11.175 26.925 11.275L24.45 13.75L26.25 15.55L28.725 13.075C28.8417 13.3083 28.9208 13.5375 28.9625 13.7625C29.0042 13.9875 29.025 14.225 29.025 14.475C29.025 15.4583 28.6875 16.2875 28.0125 16.9625C27.3375 17.6375 26.5083 17.975 25.525 17.975C25.325 17.975 25.125 17.9583 24.925 17.925C24.725 17.8917 24.5333 17.8333 24.35 17.75L13.1 29Z" fill="#1C92FF"/>
</g>
<defs>
<filter id="filter0_d_255_60" x="0.3" y="0.775006" width="38.925" height="38.425" filterUnits="userSpaceOnUse" color-interpolation-filters="sRGB">
<feFlood flood-opacity="0" result="BackgroundImageFix"/>
<feColorMatrix in="SourceAlpha" type="matrix" values="0 0 0 0 0 0 0 0 0 0 0 0 0 0 0 0 0 0 127 0" result="hardAlpha"/>
<feOffset/>
<feGaussianBlur stdDeviation="5.1"/>
<feComposite in2="hardAlpha" operator="out"/>
<feColorMatrix type="matrix" values="0 0 0 0 0.109804 0 0 0 0 0.572549 0 0 0 0 1 0 0 0 0.5 0"/>
<feBlend mode="normal" in2="BackgroundImageFix" result="effect1_dropShadow_255_60"/>
<feBlend mode="normal" in="SourceGraphic" in2="effect1_dropShadow_255_60" result="shape"/>
</filter>
</defs>
</svg>
