<svg width="16" height="16" viewBox="0 0 16 16" fill="none" xmlns="http://www.w3.org/2000/svg">
<g clip-path="url(#clip0_255_85)">
<g filter="url(#filter0_d_255_85)">
<path d="M7.99996 8.00001C8.36663 8.00001 8.68052 7.86945 8.94163 7.60834C9.20274 7.34723 9.33329 7.03334 9.33329 6.66668C9.33329 6.30001 9.20274 5.98612 8.94163 5.72501C8.68052 5.4639 8.36663 5.33334 7.99996 5.33334C7.63329 5.33334 7.3194 5.4639 7.05829 5.72501C6.79718 5.98612 6.66663 6.30001 6.66663 6.66668C6.66663 7.03334 6.79718 7.34723 7.05829 7.60834C7.3194 7.86945 7.63329 8.00001 7.99996 8.00001ZM7.99996 12.9C9.35552 11.6556 10.3611 10.525 11.0166 9.50834C11.6722 8.49168 12 7.5889 12 6.80001C12 5.5889 11.6138 4.59723 10.8416 3.82501C10.0694 3.05279 9.12218 2.66668 7.99996 2.66668C6.87774 2.66668 5.93052 3.05279 5.15829 3.82501C4.38607 4.59723 3.99996 5.5889 3.99996 6.80001C3.99996 7.5889 4.32774 8.49168 4.98329 9.50834C5.63885 10.525 6.6444 11.6556 7.99996 12.9ZM7.99996 14.6667C6.21107 13.1445 4.87496 11.7306 3.99163 10.425C3.10829 9.11945 2.66663 7.91112 2.66663 6.80001C2.66663 5.13334 3.20274 3.80557 4.27496 2.81668C5.34718 1.82779 6.58885 1.33334 7.99996 1.33334C9.41107 1.33334 10.6527 1.82779 11.725 2.81668C12.7972 3.80557 13.3333 5.13334 13.3333 6.80001C13.3333 7.91112 12.8916 9.11945 12.0083 10.425C11.125 11.7306 9.78885 13.1445 7.99996 14.6667Z" fill="#1C92FF"/>
</g>
</g>
<defs>
<filter id="filter0_d_255_85" x="-7.93337" y="-9.26666" width="31.8666" height="34.5333" filterUnits="userSpaceOnUse" color-interpolation-filters="sRGB">
<feFlood flood-opacity="0" result="BackgroundImageFix"/>
<feColorMatrix in="SourceAlpha" type="matrix" values="0 0 0 0 0 0 0 0 0 0 0 0 0 0 0 0 0 0 127 0" result="hardAlpha"/>
<feOffset/>
<feGaussianBlur stdDeviation="5.3"/>
<feComposite in2="hardAlpha" operator="out"/>
<feColorMatrix type="matrix" values="0 0 0 0 0.109804 0 0 0 0 0.572549 0 0 0 0 1 0 0 0 0.25 0"/>
<feBlend mode="normal" in2="BackgroundImageFix" result="effect1_dropShadow_255_85"/>
<feBlend mode="normal" in="SourceGraphic" in2="effect1_dropShadow_255_85" result="shape"/>
</filter>
<clipPath id="clip0_255_85">
<rect width="16" height="16" fill="white"/>
</clipPath>
</defs>
</svg>
