<svg width="16" height="16" viewBox="0 0 16 16" fill="none" xmlns="http://www.w3.org/2000/svg">
<g clip-path="url(#clip0_255_81)">
<g filter="url(#filter0_d_255_81)">
<path d="M10.2 11.1333L11.1334 10.2L8.66671 7.73334V4.66668H7.33337V8.26668L10.2 11.1333ZM8.00004 14.6667C7.07782 14.6667 6.21115 14.4917 5.40004 14.1417C4.58893 13.7917 3.88337 13.3167 3.28337 12.7167C2.68337 12.1167 2.20837 11.4111 1.85837 10.6C1.50837 9.7889 1.33337 8.92223 1.33337 8.00001C1.33337 7.07779 1.50837 6.21112 1.85837 5.40001C2.20837 4.5889 2.68337 3.88334 3.28337 3.28334C3.88337 2.68334 4.58893 2.20834 5.40004 1.85834C6.21115 1.50834 7.07782 1.33334 8.00004 1.33334C8.92226 1.33334 9.78893 1.50834 10.6 1.85834C11.4112 2.20834 12.1167 2.68334 12.7167 3.28334C13.3167 3.88334 13.7917 4.5889 14.1417 5.40001C14.4917 6.21112 14.6667 7.07779 14.6667 8.00001C14.6667 8.92223 14.4917 9.7889 14.1417 10.6C13.7917 11.4111 13.3167 12.1167 12.7167 12.7167C12.1167 13.3167 11.4112 13.7917 10.6 14.1417C9.78893 14.4917 8.92226 14.6667 8.00004 14.6667ZM8.00004 13.3333C9.47782 13.3333 10.7362 12.8139 11.775 11.775C12.8139 10.7361 13.3334 9.47779 13.3334 8.00001C13.3334 6.52223 12.8139 5.2639 11.775 4.22501C10.7362 3.18612 9.47782 2.66668 8.00004 2.66668C6.52226 2.66668 5.26393 3.18612 4.22504 4.22501C3.18615 5.2639 2.66671 6.52223 2.66671 8.00001C2.66671 9.47779 3.18615 10.7361 4.22504 11.775C5.26393 12.8139 6.52226 13.3333 8.00004 13.3333Z" fill="#1C92FF"/>
</g>
</g>
<defs>
<filter id="filter0_d_255_81" x="-9.26663" y="-9.26666" width="34.5334" height="34.5333" filterUnits="userSpaceOnUse" color-interpolation-filters="sRGB">
<feFlood flood-opacity="0" result="BackgroundImageFix"/>
<feColorMatrix in="SourceAlpha" type="matrix" values="0 0 0 0 0 0 0 0 0 0 0 0 0 0 0 0 0 0 127 0" result="hardAlpha"/>
<feOffset/>
<feGaussianBlur stdDeviation="5.3"/>
<feComposite in2="hardAlpha" operator="out"/>
<feColorMatrix type="matrix" values="0 0 0 0 0.109804 0 0 0 0 0.572549 0 0 0 0 1 0 0 0 0.25 0"/>
<feBlend mode="normal" in2="BackgroundImageFix" result="effect1_dropShadow_255_81"/>
<feBlend mode="normal" in="SourceGraphic" in2="effect1_dropShadow_255_81" result="shape"/>
</filter>
<clipPath id="clip0_255_81">
<rect width="16" height="16" fill="white"/>
</clipPath>
</defs>
</svg>
