<svg width="16" height="16" viewBox="0 0 16 16" fill="none" xmlns="http://www.w3.org/2000/svg">
<g clip-path="url(#clip0_255_77)">
<g filter="url(#filter0_d_255_77)">
<path d="M7.99996 7.99999C7.26663 7.99999 6.63885 7.73888 6.11663 7.21666C5.5944 6.69443 5.33329 6.06666 5.33329 5.33332C5.33329 4.59999 5.5944 3.97221 6.11663 3.44999C6.63885 2.92777 7.26663 2.66666 7.99996 2.66666C8.73329 2.66666 9.36107 2.92777 9.88329 3.44999C10.4055 3.97221 10.6666 4.59999 10.6666 5.33332C10.6666 6.06666 10.4055 6.69443 9.88329 7.21666C9.36107 7.73888 8.73329 7.99999 7.99996 7.99999ZM2.66663 13.3333V11.4667C2.66663 11.0889 2.76385 10.7417 2.95829 10.425C3.15274 10.1083 3.41107 9.86666 3.73329 9.69999C4.42218 9.35555 5.12218 9.09721 5.83329 8.92499C6.5444 8.75277 7.26663 8.66666 7.99996 8.66666C8.73329 8.66666 9.45552 8.75277 10.1666 8.92499C10.8777 9.09721 11.5777 9.35555 12.2666 9.69999C12.5888 9.86666 12.8472 10.1083 13.0416 10.425C13.2361 10.7417 13.3333 11.0889 13.3333 11.4667V13.3333H2.66663ZM3.99996 12H12V11.4667C12 11.3444 11.9694 11.2333 11.9083 11.1333C11.8472 11.0333 11.7666 10.9555 11.6666 10.9C11.0666 10.6 10.4611 10.375 9.84996 10.225C9.23885 10.075 8.62218 9.99999 7.99996 9.99999C7.37774 9.99999 6.76107 10.075 6.14996 10.225C5.53885 10.375 4.93329 10.6 4.33329 10.9C4.23329 10.9555 4.15274 11.0333 4.09163 11.1333C4.03051 11.2333 3.99996 11.3444 3.99996 11.4667V12ZM7.99996 6.66666C8.36663 6.66666 8.68052 6.5361 8.94163 6.27499C9.20274 6.01388 9.33329 5.69999 9.33329 5.33332C9.33329 4.96666 9.20274 4.65277 8.94163 4.39166C8.68052 4.13055 8.36663 3.99999 7.99996 3.99999C7.63329 3.99999 7.3194 4.13055 7.05829 4.39166C6.79718 4.65277 6.66663 4.96666 6.66663 5.33332C6.66663 5.69999 6.79718 6.01388 7.05829 6.27499C7.3194 6.5361 7.63329 6.66666 7.99996 6.66666Z" fill="#1C92FF"/>
</g>
</g>
<defs>
<filter id="filter0_d_255_77" x="-7.93337" y="-7.93334" width="31.8666" height="31.8667" filterUnits="userSpaceOnUse" color-interpolation-filters="sRGB">
<feFlood flood-opacity="0" result="BackgroundImageFix"/>
<feColorMatrix in="SourceAlpha" type="matrix" values="0 0 0 0 0 0 0 0 0 0 0 0 0 0 0 0 0 0 127 0" result="hardAlpha"/>
<feOffset/>
<feGaussianBlur stdDeviation="5.3"/>
<feComposite in2="hardAlpha" operator="out"/>
<feColorMatrix type="matrix" values="0 0 0 0 0.109804 0 0 0 0 0.572549 0 0 0 0 1 0 0 0 0.25 0"/>
<feBlend mode="normal" in2="BackgroundImageFix" result="effect1_dropShadow_255_77"/>
<feBlend mode="normal" in="SourceGraphic" in2="effect1_dropShadow_255_77" result="shape"/>
</filter>
<clipPath id="clip0_255_77">
<rect width="16" height="16" fill="white"/>
</clipPath>
</defs>
</svg>
