<svg width="70" height="70" viewBox="0 0 70 70" fill="none" xmlns="http://www.w3.org/2000/svg">
<g filter="url(#filter0_d_2_3534)">
<path d="M33.75 42.0833H36.5833V33.5833H33.75V42.0833ZM35.1667 30.75C35.5681 30.75 35.9045 30.6142 36.176 30.3427C36.4476 30.0712 36.5833 29.7347 36.5833 29.3333C36.5833 28.9319 36.4476 28.5955 36.176 28.3239C35.9045 28.0524 35.5681 27.9166 35.1667 27.9166C34.7653 27.9166 34.4288 28.0524 34.1573 28.3239C33.8858 28.5955 33.75 28.9319 33.75 29.3333C33.75 29.7347 33.8858 30.0712 34.1573 30.3427C34.4288 30.6142 34.7653 30.75 35.1667 30.75ZM35.1667 49.1666C33.2069 49.1666 31.3653 48.7948 29.6417 48.051C27.9181 47.3073 26.4187 46.2979 25.1438 45.0229C23.8688 43.7479 22.8594 42.2486 22.1156 40.525C21.3719 38.8014 21 36.9597 21 35C21 33.0403 21.3719 31.1986 22.1156 29.475C22.8594 27.7514 23.8688 26.2521 25.1438 24.9771C26.4187 23.7021 27.9181 22.6927 29.6417 21.9489C31.3653 21.2052 33.2069 20.8333 35.1667 20.8333C37.1264 20.8333 38.9681 21.2052 40.6917 21.9489C42.4153 22.6927 43.9146 23.7021 45.1896 24.9771C46.4646 26.2521 47.474 27.7514 48.2177 29.475C48.9615 31.1986 49.3333 33.0403 49.3333 35C49.3333 36.9597 48.9615 38.8014 48.2177 40.525C47.474 42.2486 46.4646 43.7479 45.1896 45.0229C43.9146 46.2979 42.4153 47.3073 40.6917 48.051C38.9681 48.7948 37.1264 49.1666 35.1667 49.1666ZM35.1667 46.3333C38.3306 46.3333 41.0104 45.2354 43.2062 43.0396C45.4021 40.8437 46.5 38.1639 46.5 35C46.5 31.8361 45.4021 29.1562 43.2062 26.9604C41.0104 24.7646 38.3306 23.6666 35.1667 23.6666C32.0028 23.6666 29.3229 24.7646 27.1271 26.9604C24.9312 29.1562 23.8333 31.8361 23.8333 35C23.8333 38.1639 24.9312 40.8437 27.1271 43.0396C29.3229 45.2354 32.0028 46.3333 35.1667 46.3333Z" fill="#1C92FF"/>
</g>
<defs>
<filter id="filter0_d_2_3534" x="0.6" y="0.433313" width="69.1334" height="69.1333" filterUnits="userSpaceOnUse" color-interpolation-filters="sRGB">
<feFlood flood-opacity="0" result="BackgroundImageFix"/>
<feColorMatrix in="SourceAlpha" type="matrix" values="0 0 0 0 0 0 0 0 0 0 0 0 0 0 0 0 0 0 127 0" result="hardAlpha"/>
<feOffset/>
<feGaussianBlur stdDeviation="10.2"/>
<feComposite in2="hardAlpha" operator="out"/>
<feColorMatrix type="matrix" values="0 0 0 0 0.109804 0 0 0 0 0.572549 0 0 0 0 1 0 0 0 0.5 0"/>
<feBlend mode="normal" in2="BackgroundImageFix" result="effect1_dropShadow_2_3534"/>
<feBlend mode="normal" in="SourceGraphic" in2="effect1_dropShadow_2_3534" result="shape"/>
</filter>
</defs>
</svg>
